<svg xmlns="http://www.w3.org/2000/svg" xmlns:xlink="http://www.w3.org/1999/xlink" fill="none" version="1.1" width="40" height="40" viewBox="0 0 40 40"><defs><clipPath id="master_svg0_121_06983"><path d="M0 0C0 0 0 0 0 0L40 0C40 0 40 0 40 0L40 40C40 40 40 40 40 40L0 40C0 40 0 40 0 40Z"/></clipPath></defs><g clip-path="url(#master_svg0_121_06983)"><g><path d="M35.892252734375,27.591Q36.342552734375,26.209,36.804952734375,25.7194Q37.481552734375,24.9976,37.972952734375,23.6459Q38.311652734375,22.7655,38.395952734375,21.8872Q38.470952734375,21.1055,38.470952734375,18.7976Q38.470952734375,13.53184,37.212952734375,9.205449999999999Q36.975452734375,8.365269999999999,36.774652734375,8.11007Q36.298452734375,7.50521,35.548352734375,7.91447Q34.928652734375,8.22093,34.493152734375,9.43092L34.164552734375,10.365020000000001L33.837852734375,11.2944Q33.726952734375,11.60238,33.569852734375,11.84451Q33.520852734375,11.92023,33.483052734375,11.96426Q33.323552734375,12.03956,33.190352734375,12.13166Q33.142452734375,12.06721,33.087252734375,11.99038Q29.754852734375,7.286,23.968952734375,5.80664Q23.699452734375,5.73677,23.556152734375,5.66772Q23.346752734375,5.09759,22.268052734375,4.579842L22.253152734375,4.572754L22.238052734375,4.566362Q21.336452734375,4.184889,20.045152734375,4.0506935Q18.703952734375,3.9112206,17.934052734375,4.155443Q17.230852734375,4.383963,16.559952734375003,4.8179490000000005Q15.971852734375,5.19845,15.762752734375,5.57367Q15.681452734375,5.61813,15.555252734375,5.67647Q15.099052734375,5.88736,14.445152734375,6.10532Q12.461652734375,6.7451799999999995,10.905592734375,7.74499Q9.383762734375,8.72271,7.718472734375,10.404060000000001Q6.716312734375,11.41456,6.326802734375,11.70851Q6.155172734375,11.83813,6.049842734375,11.88522Q5.836982734375,11.6253,5.204482734375,9.30617Q4.992052734375,8.56267,4.802952734374999,8.23857Q4.449232734375,7.63219,3.838552734375,7.63219Q3.107242734375,7.63219,2.801852734375,8.55517Q2.642332734375,9.03722,2.354915734375,10.60202Q0.3115427343749999,21.6048,3.323932734375,25.5995Q3.967142734375,26.4571,4.4789727343750005,27.9242Q5.3555227343750005,30.3429,6.715692734375,31.9191Q8.092492734375,33.5145,10.194362734375,34.5162Q12.184352734375,35.4546,14.040552734375,35.7372Q15.863552734375,36.0147,19.832252734375,35.9992Q22.726352734375,35.9992,24.013152734375,35.9129Q25.268552734375,35.8288,26.570552734375,35.552099999999996Q33.898852734375,33.956199999999995,35.892252734375,27.591ZM15.647352734375,5.98626Q15.647352734375,5.9018,15.666852734375,5.81706Q15.647352734375,5.8961,15.647352734375,5.98626ZM33.550752734375,11.93356Q33.529452734375,11.94204,33.512952734375,11.95037Q33.522252734375,11.94621,33.531852734375,11.9419L33.550752734375,11.93356ZM7.547382734375,16.4444C8.183842734375,15.0689,8.984552734375,14.3092,10.195892734375,13.98071C11.427742734375,13.65221,12.680152734375,13.79594,14.261052734375,14.4529C16.991652734375002,15.5821,17.073752734375,15.6027,19.599152734375,15.6027C20.886352734375,15.6134,21.500952734375,15.6185,22.087352734375,15.4921C22.623252734375,15.3766,23.135452734375,15.1512,24.115952734375,14.7198C28.427452734375,12.85148,30.726952734375,13.59063,31.835552734375,17.1836C32.430952734375,19.1751,32.348852734375,22.7269,31.650752734375,24.2668C30.316352734375,27.2232,28.324752734375,27.757,24.136452734375,26.3199C20.132952734375,24.9648,18.408352734375,24.9648,14.404752734375,26.3404C11.674152734375,27.2848,10.606512734375,27.3054,9.292522734375,26.5047C8.553392734374999,26.0324,8.163312734375001,25.6013,7.691092734375,24.6774C7.095692734375,23.5071,7.075162734375,23.4045,7.075162734375,20.4891C7.075162734375,17.799500000000002,7.136762734375,17.3889,7.547382734375,16.4444ZM14.486852734375,22.768C15.308152734375,22.2342,15.492852734375,19.2777,14.753752734375,18.3333C14.240452734375,17.676299999999998,13.501352734375,17.635199999999998,12.926552734375,18.2512C12.577452734375,18.6207,12.515852734375,18.9698,12.515852734375,20.4069C12.515852734375,21.8441,12.577452734375,22.1726,12.926552734375,22.5216C13.337152734375,22.9323,14.076252734375,23.0554,14.486852734375,22.768ZM26.641152734375,20.7149C26.702852734375,18.9287,26.682352734375,18.846600000000002,26.148452734375,18.4359C24.916652734375,17.471,24.013252734375,18.415399999999998,24.013252734375,20.6533C24.013252734375,22.1315,24.280252734375,22.8091,24.998752734375,23.1376C25.429952734375,23.3223,25.614752734375,23.3018,26.045952734375,22.9733C26.538552734375,22.6037,26.579652734375,22.4395,26.641152734375,20.7149Z" fill-rule="evenodd" fill="#2882FF" fill-opacity="1" style="mix-blend-mode:passthrough"/></g></g></svg>