<svg xmlns="http://www.w3.org/2000/svg" xmlns:xlink="http://www.w3.org/1999/xlink" fill="none" version="1.1" width="1762" height="32" viewBox="0 0 1762 32"><defs><clipPath id="master_svg0_124_08098"><rect x="0" y="2" width="72" height="28" rx="0"/></clipPath><clipPath id="master_svg1_124_08209"><rect x="72" y="0" width="1618" height="32" rx="0"/></clipPath></defs><g><rect x="0" y="0" width="1762" height="32" rx="0" fill="#FFFFFF" fill-opacity="1"/><g clip-path="url(#master_svg0_124_08098)"><g><g><g><ellipse cx="18" cy="16" rx="6" ry="6" fill="#FF5F57" fill-opacity="1" style="mix-blend-mode:passthrough"/></g><g><ellipse cx="18" cy="16" rx="5.75" ry="5.75" fill-opacity="0" stroke-opacity="0.20000000298023224" stroke="#000000" fill="none" stroke-width="0.5" style="mix-blend-mode:passthrough"/></g></g><g><g><ellipse cx="38" cy="16" rx="6" ry="6" fill="#FEBC2E" fill-opacity="1" style="mix-blend-mode:passthrough"/></g><g><ellipse cx="38" cy="16" rx="5.75" ry="5.75" fill-opacity="0" stroke-opacity="0.20000000298023224" stroke="#000000" fill="none" stroke-width="0.5" style="mix-blend-mode:passthrough"/></g></g><g><g><ellipse cx="58" cy="16" rx="6" ry="6" fill="#28C840" fill-opacity="1" style="mix-blend-mode:passthrough"/></g><g><ellipse cx="58" cy="16" rx="5.75" ry="5.75" fill-opacity="0" stroke-opacity="0.20000000298023224" stroke="#000000" fill="none" stroke-width="0.5" style="mix-blend-mode:passthrough"/></g></g></g></g><g clip-path="url(#master_svg1_124_08209)"><rect x="72" y="0" width="1618" height="32" rx="0" fill="#FFFFFF" fill-opacity="1"/><g><path d="M855.332,16.036L858.5,12.172L856.628,12.172L854.048,15.46L853.556,15.46L853.556,12.172L851.984,12.172L851.984,20.5L853.556,20.5L853.556,16.768L854.048,16.768L856.676,20.5L858.608,20.5L855.332,16.036ZM859.532,17.428L863.168,17.428L863.168,16.204L859.532,16.204L859.532,17.428ZM871.556,20.5L869.168,17.176000000000002C870.272,16.875999999999998,870.776,16.156,870.776,14.751999999999999C870.776,12.868,869.828,12.172,867.572,12.172L864.98,12.172L864.98,20.5L866.552,20.5L866.552,17.356L867.572,17.356L867.632,17.356L869.708,20.5L871.556,20.5ZM866.552,16.156L866.552,13.443999999999999L867.356,13.443999999999999C868.688,13.443999999999999,869.204,13.672,869.204,14.751999999999999C869.204,15.94,868.688,16.156,867.356,16.156L866.552,16.156ZM872.636,20.5L874.208,20.5L874.208,17.8L875.3,17.8C877.568,17.8,878.504,17.044,878.504,14.943999999999999C878.504,12.975999999999999,877.748,12.172,875.3,12.172L872.636,12.172L872.636,20.5ZM874.208,16.528L874.208,13.443999999999999L875.108,13.443999999999999C876.44,13.443999999999999,876.896,13.828,876.896,14.968C876.896,16.18,876.452,16.528,875.108,16.528L874.208,16.528ZM884.348,18.292L880.868,18.292L880.076,20.5L878.456,20.5L881.576,12.172L883.688,12.172L886.784,20.5L885.116,20.5L884.348,18.292ZM883.88,16.972L882.692,13.576L882.548,13.576L881.336,16.972L883.88,16.972ZM895.904,19.119999999999997L895.904,20.5L890.912,20.5L890.912,12.172L892.484,12.172L892.484,19.119999999999997L895.904,19.119999999999997ZM897.86,13.024000000000001Q897.608,13.024000000000001,897.446,13Q897.284,12.975999999999999,897.182,12.886Q897.08,12.796,897.044,12.64Q897.008,12.484,897.008,12.208Q897.008,11.932,897.044,11.77Q897.08,11.608,897.182,11.530000000000001Q897.284,11.452,897.446,11.428Q897.608,11.404,897.86,11.404Q898.112,11.404,898.274,11.428Q898.436,11.452,898.538,11.530000000000001Q898.64,11.608,898.676,11.77Q898.712,11.932,898.712,12.208Q898.712,12.484,898.676,12.64Q898.64,12.796,898.538,12.886Q898.436,12.975999999999999,898.274,13Q898.112,13.024000000000001,897.86,13.024000000000001ZM897.104,14.02L898.604,14.02L898.604,20.5L897.104,20.5L897.104,14.02ZM902.096,15.219999999999999L902.096,18.34Q902.096,18.652,902.126,18.856Q902.156,19.060000000000002,902.246,19.18Q902.336,19.3,902.492,19.342Q902.648,19.384,902.9,19.384Q903.068,19.384,903.212,19.372Q903.356,19.36,903.488,19.323999999999998L903.488,20.512Q903.296,20.536,903.092,20.554000000000002Q902.888,20.572,902.684,20.572Q902.108,20.572,901.706,20.482Q901.304,20.392,901.058,20.158Q900.812,19.924,900.704,19.509999999999998Q900.596,19.096,900.596,18.46L900.596,15.219999999999999L899.696,15.219999999999999L899.696,14.02L900.596,14.02L900.596,12.484L902.096,12.484L902.096,14.02L903.524,14.02L903.524,15.219999999999999L902.096,15.219999999999999ZM910.172,16.695999999999998Q910.172,16.936,910.154,17.158Q910.136,17.380000000000003,910.112,17.548000000000002L905.864,17.823999999999998Q905.888,18.64,906.32,19.024Q906.752,19.408,907.724,19.408Q908.012,19.408,908.318,19.372Q908.624,19.336,908.906,19.27Q909.188,19.204,909.428,19.125999999999998Q909.668,19.048000000000002,909.836,18.964L909.836,20.188000000000002Q909.548,20.356,908.9,20.488Q908.252,20.619999999999997,907.46,20.619999999999997Q906.716,20.619999999999997,906.14,20.464Q905.564,20.308,905.168,19.924Q904.772,19.54,904.562,18.892Q904.352,18.244,904.352,17.259999999999998Q904.352,16.276,904.562,15.628Q904.772,14.98,905.168,14.596Q905.564,14.212,906.14,14.056000000000001Q906.716,13.9,907.46,13.9Q908.3,13.9,908.828,14.122Q909.356,14.344000000000001,909.656,14.728Q909.956,15.112,910.064,15.616Q910.172,16.119999999999997,910.172,16.695999999999998ZM908.78,16.54Q908.78,16.240000000000002,908.738,15.97Q908.696,15.7,908.552,15.496Q908.408,15.292,908.15,15.172Q907.892,15.052,907.46,15.052Q907.004,15.052,906.704,15.16Q906.404,15.268,906.224,15.484Q906.044,15.7,905.96,16.018Q905.876,16.336,905.864,16.756L908.78,16.54Z" fill="#000000" fill-opacity="1"/></g></g></g></svg>